<svg width="18" height="46" viewBox="0 0 18 46" fill="none" xmlns="http://www.w3.org/2000/svg">
<path d="M17 42.1L16.75 42.1L16.5 41.075C16.35 40.3917 15.9334 40.05 15.25 40.05L1.00005 40.05L1.00005 42.175C1.00005 42.7917 1.16672 43.2333 1.50005 43.5C1.81672 43.7667 2.25838 44.05 2.82505 44.35L4.57505 45.25L4.57505 45.5L0.500049 45.375L0.500048 30.95L4.57505 30.85L4.57505 31.1L2.82505 32C2.25838 32.2833 1.81672 32.5583 1.50005 32.825C1.16672 33.0917 1.00005 33.5333 1.00005 34.15L1.00005 36.275L15.25 36.275C15.9334 36.275 16.35 35.9333 16.5 35.25L16.75 34.225L17 34.225L17 42.1Z" fill="#F01327"/>
<path d="M17.45 22.3418C17.45 23.3585 17.2667 24.3418 16.9 25.2918C16.5334 26.2251 15.9917 27.0668 15.275 27.8168C14.5417 28.5501 13.6334 29.1335 12.55 29.5668C11.4667 30.0001 10.2 30.2168 8.75005 30.2168C7.31672 30.2168 6.05838 30.0001 4.97505 29.5668C3.89172 29.1335 2.99171 28.5418 2.27505 27.7918C1.54171 27.0418 0.991715 26.2001 0.625048 25.2668C0.241714 24.3168 0.0500479 23.3418 0.0500478 22.3418C0.0500478 21.3251 0.233381 20.3501 0.600048 19.4168C0.950047 18.4668 1.49171 17.6251 2.22505 16.8918C2.94171 16.1418 3.85005 15.5501 4.95005 15.1168C6.03338 14.6835 7.30005 14.4668 8.75005 14.4668C10.1667 14.4668 11.425 14.6835 12.525 15.1168C13.6084 15.5501 14.5167 16.1418 15.25 16.8918C15.9667 17.6251 16.5167 18.4668 16.9 19.4168C17.2667 20.3501 17.45 21.3251 17.45 22.3418ZM16.925 22.3418C16.925 21.4251 16.6834 20.6835 16.2 20.1168C15.7 19.5501 14.8584 19.1418 13.675 18.8918C12.475 18.6251 10.8334 18.4918 8.75005 18.4918C6.65005 18.4918 5.00838 18.6251 3.82505 18.8918C2.62505 19.1418 1.78338 19.5501 1.30005 20.1168C0.800047 20.6835 0.550047 21.4251 0.550047 22.3418C0.550047 23.2418 0.800047 23.9751 1.30005 24.5418C1.78338 25.1085 2.62505 25.5251 3.82505 25.7918C5.00838 26.0418 6.65005 26.1668 8.75005 26.1668C10.8334 26.1668 12.475 26.0418 13.675 25.7918C14.8584 25.5251 15.7 25.1085 16.2 24.5418C16.6834 23.9751 16.925 23.2418 16.925 22.3418Z" fill="#F01327"/>
<path d="M17 13.8338L16.75 13.8338L16.575 13.3338C16.475 13.0005 16.325 12.7838 16.125 12.6838C15.925 12.5671 15.6584 12.5088 15.325 12.5088L2.22505 12.5088C1.89171 12.5088 1.62505 12.5671 1.42505 12.6838C1.22505 12.8005 1.06671 13.0255 0.950048 13.3588L0.750047 13.8338L0.500047 13.8338L0.500047 7.75879C0.500047 5.27546 0.958381 3.48379 1.87505 2.38379C2.77505 1.26712 3.96671 0.708786 5.45005 0.708786C6.40005 0.708786 7.27505 0.94212 8.07505 1.40879C8.85838 1.85879 9.48338 2.60879 9.95005 3.65879C10.4167 4.70879 10.65 6.12546 10.65 7.90879L10.65 8.75879L15.25 8.75879C15.9 8.75879 16.325 8.43379 16.525 7.78379L16.75 7.03379L17 7.03379L17 13.8338ZM10.15 8.75879L10.15 7.80879C10.15 6.99212 10.0167 6.32545 9.75005 5.80879C9.48338 5.29212 9.01671 4.90879 8.35005 4.65879C7.68338 4.40879 6.75838 4.28379 5.57505 4.28379C4.37505 4.28379 3.44171 4.42546 2.77505 4.70879C2.10838 4.97546 1.65005 5.37545 1.40005 5.90879C1.13338 6.44212 1.00005 7.10879 1.00005 7.90879L1.00005 8.75879L10.15 8.75879Z" fill="#F01327"/>
</svg>
