<svg width="18" height="45" viewBox="0 0 18 45" fill="none" xmlns="http://www.w3.org/2000/svg">
<path d="M16.95 41.391L16.7 41.391L16.45 40.366C16.3 39.6827 15.8833 39.341 15.2 39.341L0.95 39.341L0.95 41.466C0.95 42.0827 1.11667 42.5243 1.45 42.791C1.76667 43.0577 2.20833 43.341 2.775 43.641L4.525 44.541L4.525 44.791L0.45 44.666L0.449999 30.241L4.525 30.141L4.525 30.391L2.775 31.291C2.20833 31.5743 1.76667 31.8493 1.45 32.116C1.11667 32.3827 0.949999 32.8243 0.949999 33.441L0.949999 35.566L15.2 35.566C15.8833 35.566 16.3 35.2243 16.45 34.541L16.7 33.516L16.95 33.516L16.95 41.391Z" fill="#0D0102"/>
<path d="M17.4 21.6328C17.4 22.6495 17.2167 23.6328 16.85 24.5828C16.4833 25.5161 15.9417 26.3578 15.225 27.1078C14.4917 27.8411 13.5833 28.4245 12.5 28.8578C11.4167 29.2911 10.15 29.5078 8.7 29.5078C7.26667 29.5078 6.00833 29.2911 4.925 28.8578C3.84167 28.4245 2.94167 27.8328 2.225 27.0828C1.49167 26.3328 0.941666 25.4911 0.574999 24.5578C0.191666 23.6078 -9.68566e-07 22.6328 -1.01228e-06 21.6328C-1.05672e-06 20.6161 0.183332 19.6411 0.549999 18.7078C0.899998 17.7578 1.44167 16.9161 2.175 16.1828C2.89167 15.4328 3.8 14.8411 4.9 14.4078C5.98333 13.9745 7.25 13.7578 8.7 13.7578C10.1167 13.7578 11.375 13.9745 12.475 14.4078C13.5583 14.8411 14.4667 15.4328 15.2 16.1828C15.9167 16.9161 16.4667 17.7578 16.85 18.7078C17.2167 19.6411 17.4 20.6161 17.4 21.6328ZM16.875 21.6328C16.875 20.7161 16.6333 19.9745 16.15 19.4078C15.65 18.8411 14.8083 18.4328 13.625 18.1828C12.425 17.9161 10.7833 17.7828 8.7 17.7828C6.6 17.7828 4.95833 17.9161 3.775 18.1828C2.575 18.4328 1.73333 18.8411 1.25 19.4078C0.749998 19.9745 0.499998 20.7161 0.499998 21.6328C0.499998 22.5328 0.749999 23.2661 1.25 23.8328C1.73333 24.3995 2.575 24.8161 3.775 25.0828C4.95833 25.3328 6.6 25.4578 8.7 25.4578C10.7833 25.4578 12.425 25.3328 13.625 25.0828C14.8083 24.8161 15.65 24.3995 16.15 23.8328C16.6333 23.2661 16.875 22.5328 16.875 21.6328Z" fill="#0D0102"/>
<path d="M16.95 13.1248L16.7 13.1248L16.525 12.6248C16.425 12.2915 16.275 12.0748 16.075 11.9748C15.875 11.8581 15.6083 11.7998 15.275 11.7998L2.175 11.7998C1.84167 11.7998 1.575 11.8581 1.375 11.9748C1.175 12.0915 1.01667 12.3165 0.899999 12.6498L0.699998 13.1248L0.449998 13.1248L0.449998 7.0498C0.449998 4.56647 0.908332 2.7748 1.825 1.6748C2.725 0.558137 3.91667 -0.000198535 5.4 -0.0001986C6.35 -0.000198642 7.225 0.233135 8.025 0.699802C8.80833 1.1498 9.43333 1.8998 9.9 2.9498C10.3667 3.9998 10.6 5.41647 10.6 7.19981L10.6 8.0498L15.2 8.0498C15.85 8.0498 16.275 7.72481 16.475 7.07481L16.7 6.32481L16.95 6.32481L16.95 13.1248ZM10.1 8.0498L10.1 7.0998C10.1 6.28314 9.96667 5.61647 9.7 5.0998C9.43333 4.58314 8.96667 4.1998 8.3 3.9498C7.63333 3.6998 6.70833 3.57481 5.525 3.57481C4.325 3.57481 3.39166 3.71647 2.725 3.99981C2.05833 4.26647 1.6 4.66647 1.35 5.1998C1.08333 5.73314 0.949998 6.39981 0.949998 7.19981L0.949998 8.0498L10.1 8.0498Z" fill="#0D0102"/>
</svg>
